<svg viewBox="0 0 330 200" xmlns="http://www.w3.org/2000/svg"><g><g><g><g><g><line x1="50" y1="178" x2="45" y2="178" style="visibility: inherit;" fill="rgb(0, 0, 0)" stroke="rgb(204, 204, 204)" stroke-width="1px"></line><line x1="50" y1="163.16666666666666" x2="45" y2="163.16666666666666" style="visibility: inherit;" fill="rgb(0, 0, 0)" stroke="rgb(204, 204, 204)" stroke-width="1px"></line><line x1="50" y1="148.33333333333334" x2="45" y2="148.33333333333334" style="visibility: inherit;" fill="rgb(0, 0, 0)" stroke="rgb(204, 204, 204)" stroke-width="1px"></line><line x1="50" y1="133.5" x2="45" y2="133.5" style="visibility: inherit;" fill="rgb(0, 0, 0)" stroke="rgb(204, 204, 204)" stroke-width="1px"></line><line x1="50" y1="118.66666666666667" x2="45" y2="118.66666666666667" style="visibility: inherit;" fill="rgb(0, 0, 0)" stroke="rgb(204, 204, 204)" stroke-width="1px"></line><line x1="50" y1="103.83333333333334" x2="45" y2="103.83333333333334" style="visibility: inherit;" fill="rgb(0, 0, 0)" stroke="rgb(204, 204, 204)" stroke-width="1px"></line><line x1="50" y1="89.00000000000001" x2="45" y2="89.00000000000001" style="visibility: inherit;" fill="rgb(0, 0, 0)" stroke="rgb(204, 204, 204)" stroke-width="1px"></line><line x1="50" y1="74.16666666666669" x2="45" y2="74.16666666666669" style="visibility: inherit;" fill="rgb(0, 0, 0)" stroke="rgb(204, 204, 204)" stroke-width="1px"></line><line x1="50" y1="59.33333333333336" x2="45" y2="59.33333333333336" style="visibility: inherit;" fill="rgb(0, 0, 0)" stroke="rgb(204, 204, 204)" stroke-width="1px"></line><line x1="50" y1="44.50000000000003" x2="45" y2="44.50000000000003" style="visibility: inherit;" fill="rgb(0, 0, 0)" stroke="rgb(204, 204, 204)" stroke-width="1px"></line><line x1="50" y1="29.666666666666686" x2="45" y2="29.666666666666686" style="visibility: inherit;" fill="rgb(0, 0, 0)" stroke="rgb(204, 204, 204)" stroke-width="1px"></line><line x1="50" y1="14.833333333333343" x2="45" y2="14.833333333333343" style="visibility: inherit;" fill="rgb(0, 0, 0)" stroke="rgb(204, 204, 204)" stroke-width="1px"></line><line x1="50" y1="0" x2="45" y2="0" style="visibility: inherit;" fill="rgb(0, 0, 0)" stroke="rgb(204, 204, 204)" stroke-width="1px"></line></g><g transform="translate(40, 0)"><text x="0" y="178" dx="0em" dy="0.3em" style="text-anchor: end; visibility: hidden; font-family: &quot;Helvetica Neue&quot;, sans-serif; font-size: 12px; font-weight: 200;" fill="rgb(50, 49, 63)" stroke="none" stroke-width="1px">-0.1</text><text x="0" y="163.16666666666666" dx="0em" dy="0.3em" style="text-anchor: end; visibility: inherit; font-family: &quot;Helvetica Neue&quot;, sans-serif; font-size: 12px; font-weight: 200;" fill="rgb(50, 49, 63)" stroke="none" stroke-width="1px">0</text><text x="0" y="148.33333333333334" dx="0em" dy="0.3em" style="text-anchor: end; visibility: hidden; font-family: &quot;Helvetica Neue&quot;, sans-serif; font-size: 12px; font-weight: 200;" fill="rgb(50, 49, 63)" stroke="none" stroke-width="1px">0.1</text><text x="0" y="133.5" dx="0em" dy="0.3em" style="text-anchor: end; visibility: inherit; font-family: &quot;Helvetica Neue&quot;, sans-serif; font-size: 12px; font-weight: 200;" fill="rgb(50, 49, 63)" stroke="none" stroke-width="1px">0.2</text><text x="0" y="118.66666666666667" dx="0em" dy="0.3em" style="text-anchor: end; visibility: hidden; font-family: &quot;Helvetica Neue&quot;, sans-serif; font-size: 12px; font-weight: 200;" fill="rgb(50, 49, 63)" stroke="none" stroke-width="1px">0.3</text><text x="0" y="103.83333333333334" dx="0em" dy="0.3em" style="text-anchor: end; visibility: inherit; font-family: &quot;Helvetica Neue&quot;, sans-serif; font-size: 12px; font-weight: 200;" fill="rgb(50, 49, 63)" stroke="none" stroke-width="1px">0.4</text><text x="0" y="89.00000000000001" dx="0em" dy="0.3em" style="text-anchor: end; visibility: hidden; font-family: &quot;Helvetica Neue&quot;, sans-serif; font-size: 12px; font-weight: 200;" fill="rgb(50, 49, 63)" stroke="none" stroke-width="1px">0.5</text><text x="0" y="74.16666666666669" dx="0em" dy="0.3em" style="text-anchor: end; visibility: inherit; font-family: &quot;Helvetica Neue&quot;, sans-serif; font-size: 12px; font-weight: 200;" fill="rgb(50, 49, 63)" stroke="none" stroke-width="1px">0.6</text><text x="0" y="59.33333333333336" dx="0em" dy="0.3em" style="text-anchor: end; visibility: hidden; font-family: &quot;Helvetica Neue&quot;, sans-serif; font-size: 12px; font-weight: 200;" fill="rgb(50, 49, 63)" stroke="none" stroke-width="1px">0.7</text><text x="0" y="44.50000000000003" dx="0em" dy="0.3em" style="text-anchor: end; visibility: inherit; font-family: &quot;Helvetica Neue&quot;, sans-serif; font-size: 12px; font-weight: 200;" fill="rgb(50, 49, 63)" stroke="none" stroke-width="1px">0.8</text><text x="0" y="29.666666666666686" dx="0em" dy="0.3em" style="text-anchor: end; visibility: hidden; font-family: &quot;Helvetica Neue&quot;, sans-serif; font-size: 12px; font-weight: 200;" fill="rgb(50, 49, 63)" stroke="none" stroke-width="1px">0.9</text><text x="0" y="14.833333333333343" dx="0em" dy="0.3em" style="text-anchor: end; visibility: inherit; font-family: &quot;Helvetica Neue&quot;, sans-serif; font-size: 12px; font-weight: 200;" fill="rgb(50, 49, 63)" stroke="none" stroke-width="1px">1</text><text x="0" y="0" dx="0em" dy="0.3em" style="text-anchor: end; visibility: hidden; font-family: &quot;Helvetica Neue&quot;, sans-serif; font-size: 12px; font-weight: 200;" fill="rgb(50, 49, 63)" stroke="none" stroke-width="1px">1.1</text></g><line x1="50" y1="0" x2="50" y2="178" fill="rgb(0, 0, 0)" stroke="rgb(204, 204, 204)" stroke-width="1px"></line></g></g><g transform="translate(50, 0)" clip-path="url(#clip_0)"><clipPath id="clip_0"><rect width="280" height="178"></rect></clipPath><g><g><g><line x1="0" y1="0" x2="0" y2="178" fill="rgb(0, 0, 0)" stroke="rgb(60, 60, 60)" stroke-width="1px" opacity="0.25"></line><line x1="31.11111111111111" y1="0" x2="31.11111111111111" y2="178" fill="rgb(0, 0, 0)" stroke="rgb(60, 60, 60)" stroke-width="1px" opacity="0.25"></line><line x1="62.22222222222222" y1="0" x2="62.22222222222222" y2="178" fill="rgb(0, 0, 0)" stroke="rgb(60, 60, 60)" stroke-width="1px" opacity="0.25"></line><line x1="93.33333333333333" y1="0" x2="93.33333333333333" y2="178" fill="rgb(0, 0, 0)" stroke="rgb(60, 60, 60)" stroke-width="1px" opacity="0.25"></line><line x1="124.44444444444444" y1="0" x2="124.44444444444444" y2="178" fill="rgb(0, 0, 0)" stroke="rgb(60, 60, 60)" stroke-width="1px" opacity="0.25"></line><line x1="155.55555555555557" y1="0" x2="155.55555555555557" y2="178" fill="rgb(0, 0, 0)" stroke="rgb(60, 60, 60)" stroke-width="1px" opacity="0.25"></line><line x1="186.66666666666666" y1="0" x2="186.66666666666666" y2="178" fill="rgb(0, 0, 0)" stroke="rgb(60, 60, 60)" stroke-width="1px" opacity="0.25"></line><line x1="217.77777777777777" y1="0" x2="217.77777777777777" y2="178" fill="rgb(0, 0, 0)" stroke="rgb(60, 60, 60)" stroke-width="1px" opacity="0.25"></line><line x1="248.88888888888889" y1="0" x2="248.88888888888889" y2="178" fill="rgb(0, 0, 0)" stroke="rgb(60, 60, 60)" stroke-width="1px" opacity="0.25"></line><line x1="280" y1="0" x2="280" y2="178" fill="rgb(0, 0, 0)" stroke="rgb(60, 60, 60)" stroke-width="1px" opacity="0.25"></line></g><g><line x1="0" y1="178" x2="280" y2="178" fill="rgb(0, 0, 0)" stroke="rgb(60, 60, 60)" stroke-width="1px" opacity="0.25"></line><line x1="0" y1="163.16666666666666" x2="280" y2="163.16666666666666" fill="rgb(0, 0, 0)" stroke="rgb(60, 60, 60)" stroke-width="1px" opacity="0.25"></line><line x1="0" y1="148.33333333333334" x2="280" y2="148.33333333333334" fill="rgb(0, 0, 0)" stroke="rgb(60, 60, 60)" stroke-width="1px" opacity="0.25"></line><line x1="0" y1="133.5" x2="280" y2="133.5" fill="rgb(0, 0, 0)" stroke="rgb(60, 60, 60)" stroke-width="1px" opacity="0.25"></line><line x1="0" y1="118.66666666666667" x2="280" y2="118.66666666666667" fill="rgb(0, 0, 0)" stroke="rgb(60, 60, 60)" stroke-width="1px" opacity="0.25"></line><line x1="0" y1="103.83333333333334" x2="280" y2="103.83333333333334" fill="rgb(0, 0, 0)" stroke="rgb(60, 60, 60)" stroke-width="1px" opacity="0.25"></line><line x1="0" y1="89.00000000000001" x2="280" y2="89.00000000000001" fill="rgb(0, 0, 0)" stroke="rgb(60, 60, 60)" stroke-width="1px" opacity="0.25"></line><line x1="0" y1="74.16666666666669" x2="280" y2="74.16666666666669" fill="rgb(0, 0, 0)" stroke="rgb(60, 60, 60)" stroke-width="1px" opacity="0.25"></line><line x1="0" y1="59.33333333333336" x2="280" y2="59.33333333333336" fill="rgb(0, 0, 0)" stroke="rgb(60, 60, 60)" stroke-width="1px" opacity="0.25"></line><line x1="0" y1="44.50000000000003" x2="280" y2="44.50000000000003" fill="rgb(0, 0, 0)" stroke="rgb(60, 60, 60)" stroke-width="1px" opacity="0.25"></line><line x1="0" y1="29.666666666666686" x2="280" y2="29.666666666666686" fill="rgb(0, 0, 0)" stroke="rgb(60, 60, 60)" stroke-width="1px" opacity="0.25"></line><line x1="0" y1="14.833333333333343" x2="280" y2="14.833333333333343" fill="rgb(0, 0, 0)" stroke="rgb(60, 60, 60)" stroke-width="1px" opacity="0.25"></line><line x1="0" y1="0" x2="280" y2="0" fill="rgb(0, 0, 0)" stroke="rgb(60, 60, 60)" stroke-width="1px" opacity="0.25"></line></g></g></g><g><g><line x1="0" y1="163.16666666666666" x2="280" y2="163.16666666666666" fill="rgb(0, 0, 0)" stroke="rgb(153, 153, 153)" stroke-width="1.5px"></line></g></g><g><g><line x1="31.11111111111111" y1="0" x2="31.11111111111111" y2="178" fill="rgb(0, 0, 0)" stroke="rgb(153, 153, 153)" stroke-width="1.5px"></line></g></g><g><g><g><g><g><path stroke="rgb(238, 51, 119)" stroke-width="2px" d="M31.11111111111111,93.24913341800374L34.22222222222222,87.21343555425607L37.333333333333336,84.57743527147237L40.44444444444444,76.49119242306288L43.55555555555556,68.34569670695304L46.666666666666664,76.68759083781075L49.77777777777778,83.50299558419637L52.888888888888886,77.72453303566536L56,78.06628893344322L59.111111111111114,77.49185672255255L62.22222222222222,85.05832826901036L65.33333333333333,75.64401912729721L68.44444444444444,62.736913833354365L71.55555555555554,62.735203694279406L74.66666666666667,60.56996408567937L77.77777777777779,52.47094362872245L80.88888888888889,50.54925596744377L84,59.28634251752807L87.11111111111111,52.78425770071513L90.22222222222223,46.71998449992299L93.33333333333333,47.253529003223605L96.44444444444444,48.191713083806235L99.55555555555556,53.235552615272624L102.66666666666666,49.154160631041606L105.77777777777777,55.35813901671422L108.88888888888889,48.4190382398572L112,44.564612264543484L115.1111111111111,48.27800457136257L118.22222222222223,45.09805157114309L121.33333333333334,46.58938800678442L124.44444444444444,46.40259111262645L127.55555555555556,42.42766428348861L130.66666666666666,42.514931907593706L133.77777777777777,39.167985647592644L136.88888888888889,43.34037479361527L140,39.66325143717211L143.1111111111111,39.7746857952566L146.22222222222223,35.82418646248499L149.33333333333334,36.54416347802541L152.44444444444443,44.23830483150337L155.55555555555557,42.210691230609115L158.66666666666666,41.303149670192454L161.77777777777777,37.66834813439931L164.88888888888889,38.11420214631386L168,35.136922886409224L171.11111111111111,35.0502104662431L174.22222222222223,34.07109968077887L177.33333333333331,33.17460307404423L180.44444444444446,34.95441344338087L183.55555555555554,32.62299646707933L186.66666666666666,31.53317288024232L189.7777777777778,31.188305327074772L192.88888888888889,30.981384795174876L196,32.40237254377308L199.11111111111111,34.02753345852858L202.22222222222223,32.066868476186045L205.33333333333331,33.671719486781626L208.44444444444446,33.862058290999386L211.55555555555554,36.91202664126655L214.66666666666669,38.278465984760004L217.77777777777777,37.707704590856L220.88888888888889,42.155179488916644L224,41.5788727610863L227.11111111111111,38.915380391054754L230.2222222222222,35.6176298335632L233.33333333333334,35.9566878324016L236.44444444444446,34.614986100510635L239.55555555555554,32.41934006137603L242.66666666666669,34.655770703492294L245.77777777777777,32.75283742209538L248.88888888888889,32.07461911992388L252,29.50449487302396L255.11111111111111,28.116931856078082L258.22222222222223,28.056965848049828L261.3333333333333,29.411611243232898L264.44444444444446,29.760856813676043" style="fill: none;" fill="none"></path></g><g><path stroke="rgb(51, 187, 238)" stroke-width="2px" d="M31.11111111111111,107.90934770305952L34.22222222222222,103.05069675296546L37.333333333333336,92.07651912476743L40.44444444444444,78.25535051699948L43.55555555555556,67.15050935741105L46.666666666666664,58.73120387282118L49.77777777777778,53.2033334621173L52.888888888888886,49.944604415814126L56,47.77005954983011L59.111111111111114,45.33798307455416L62.22222222222222,44.30991811425224L65.33333333333333,44.158709388486926L68.44444444444444,44.320648439170554L71.55555555555554,44.14502874683728L74.66666666666667,42.596939000903944L77.77777777777779,41.40806435822378L80.88888888888889,39.8964234632152L84,39.157704552630975L87.11111111111111,38.88261271138461L90.22222222222223,38.92768199289941L93.33333333333333,38.0722651248812L96.44444444444444,37.01275136067241L99.55555555555556,36.79726022370264L102.66666666666666,36.07967418489454L105.77777777777777,34.640623797920085L108.88888888888889,34.19740531534299L112,43.218076380045545L115.1111111111111,39.38589646244225L118.22222222222223,36.666381448781124L121.33333333333334,34.40436208921167L124.44444444444444,33.63544052977895L127.55555555555556,33.04802406408055L130.66666666666666,32.44345056852194L133.77777777777777,31.786561652121435L136.88888888888889,31.35040711851019L140,29.954152733534073L143.1111111111111,29.578629724115416L146.22222222222223,29.017149894495248L149.33333333333334,29.22653046240933L152.44444444444443,30.10853324247398L155.55555555555557,29.671258031452652L158.66666666666666,29.450914100178323L161.77777777777777,29.10860176595196L164.88888888888889,28.39896709735106L168,28.4774335643626L171.11111111111111,28.062287371588326L174.22222222222223,27.729157265749564L177.33333333333331,27.73938164118573L180.44444444444446,27.91360104682468L183.55555555555554,28.690464738628123L186.66666666666666,27.81191885686738L189.7777777777778,27.662978547116637L192.88888888888889,27.23744833705777L196,26.81404543064764L199.11111111111111,26.265858857687363L202.22222222222223,26.020989304099004L205.33333333333331,26.16821240106043L208.44444444444446,25.24804818661289L211.55555555555554,24.653928462850672L214.66666666666669,24.213414238405818L217.77777777777777,24.540549957660403L220.88888888888889,23.97730589145874L224,24.984023548570036L227.11111111111111,24.663594923857886L230.2222222222222,23.492139929002946L233.33333333333334,23.852507142305228L236.44444444444446,23.732561446078563L239.55555555555554,23.70261522343631L242.66666666666669,23.054336636528603L245.77777777777777,22.917493118404508L248.88888888888889,23.255595421925676L252,23.038248389642746L255.11111111111111,23.117942609199673L258.22222222222223,22.241303458497242L261.3333333333333,22.84988162598131L264.44444444444446,22.71077772188852" style="fill: none;" fill="none"></path></g></g></g></g><g opacity="0.2"><g><g><g><path stroke="rgb(238, 51, 119)" stroke-width="2px" d="M31.11111111111111,93.24913341800374L34.22222222222222,83.59201683600746L37.333333333333336,82.04687500000001L40.44444444444444,66.98177083333336L43.55555555555556,57.710937500000014L46.666666666666664,88.22743350267412L49.77777777777778,93.24913341800374L52.888888888888886,69.29947916666669L56,78.57031250000001L59.111111111111114,76.63889183600746L62.22222222222222,96.33940824866296L65.33333333333333,61.57378766934079L68.44444444444444,43.41839983065927L71.55555555555554,62.73264183600746L74.66666666666667,57.324649830659254L77.77777777777779,40.32812500000003L80.88888888888889,47.66753766934079L84,72.38975399732591L87.11111111111111,43.03212100267413L90.22222222222223,37.624128997325926L93.33333333333333,48.053816497325926L96.44444444444444,49.59895833333337L99.55555555555556,60.801212330659254L102.66666666666666,43.03212100267413L105.77777777777777,64.66406250000001L108.88888888888889,38.010416666666686L112,38.78298316399258L115.1111111111111,53.848087330659254L118.22222222222223,40.32812500000003L121.33333333333334,48.826391836007474L124.44444444444444,46.12239583333337L127.55555555555556,36.46527483065927L130.66666666666666,42.64583333333337L133.77777777777777,34.147566497325926L136.88888888888889,49.59895833333337L140,34.147566497325926L143.1111111111111,39.94183733065927L146.22222222222223,29.89843750000003L149.33333333333334,37.624128997325926L152.44444444444443,55.77951683600746L155.55555555555557,39.16927083333337L158.66666666666666,39.94183733065927L161.77777777777777,32.21614583333337L164.88888888888889,38.78298316399258L168,30.671003997325926L171.11111111111111,34.920141836007474L174.22222222222223,32.60243350267413L177.33333333333331,31.829858163992583L180.44444444444446,37.624128997325926L183.55555555555554,29.125871002674103L186.66666666666666,29.89843750000003L189.7777777777778,30.671003997325926L192.88888888888889,30.671003997325926L196,34.533854166666686L199.11111111111111,36.46527483065927L202.22222222222223,29.125871002674103L205.33333333333331,36.07899600267413L208.44444444444446,34.147566497325926L211.55555555555554,41.486979166666686L214.66666666666669,40.32812500000003L217.77777777777777,36.85156250000003L220.88888888888889,48.826391836007474L224,40.71441266934079L227.11111111111111,34.920141836007474L230.2222222222222,30.671003997325926L233.33333333333334,36.46527483065927L236.44444444444446,32.60243350267413L239.55555555555554,29.125871002674103L242.66666666666669,38.010416666666686L245.77777777777777,29.89843750000003L248.88888888888889,31.057291666666686L252,25.649308502674103L255.11111111111111,26.03558733065924L258.22222222222223,27.967016836007446L261.3333333333333,31.443579336007474L264.44444444444446,30.28472516934079" style="fill: none;" fill="none"></path></g><g><path stroke="rgb(51, 187, 238)" stroke-width="2px" d="M31.11111111111111,107.90934770305952L34.22222222222222,100.13550618290903L37.333333333333336,81.54130860169731L40.44444444444444,62.00165623426439L43.55555555555556,52.652028739452376L46.666666666666664,47.084273437658965L49.77777777777778,45.29839032888415L52.888888888888886,45.19334618250531L56,44.56302825609845L59.111111111111114,41.72663295269015L62.22222222222222,42.77714514732364L65.33333333333333,43.93271917104724L68.44444444444444,44.56302825609845L71.55555555555554,43.881943265597045L74.66666666666667,40.276624103387235L77.77777777777779,39.62559088071191L80.88888888888889,37.62960179646814L84,38.049813747406034L87.11111111111111,38.47001685698831L90.22222222222223,38.995281795660674L93.33333333333333,36.789186735947965L96.44444444444444,35.42351557811105L99.55555555555556,36.474027772744535L102.66666666666666,35.003303627173125L105.77777777777777,32.48205844561261L108.88888888888889,33.53257948160174L112,56.74905989567441L115.1111111111111,33.63763246933621L118.22222222222223,32.587111433347104L121.33333333333334,31.011334300041227L124.44444444444444,32.48205844561261L127.55555555555556,32.16689948240918L130.66666666666666,31.53659039735797L133.77777777777777,30.801228324572264L136.88888888888889,30.696175336837797L140,27.859771192073822L143.1111111111111,29.015345215797424L146.22222222222223,28.174930155277252L149.33333333333334,29.540601313114166L152.44444444444443,31.431537409623502L155.55555555555557,29.015345215797424L158.66666666666666,29.12039820353192L161.77777777777777,28.595133264859527L164.88888888888889,27.33451509475708L168,28.595133264859527L171.11111111111111,27.439568082491576L174.22222222222223,27.229462107022613L177.33333333333331,27.754718204339355L180.44444444444446,28.174930155277252L183.55555555555554,29.855760276317625L186.66666666666666,26.494100034236908L189.7777777777778,27.439568082491576L192.88888888888889,26.599153021971404L196,26.178941071033478L199.11111111111111,25.4435789982478L202.22222222222223,25.653684973716736L205.33333333333331,26.38904704650244L208.44444444444446,23.867801864941924L211.55555555555554,23.762748877207457L214.66666666666669,23.552642901738494L217.77777777777777,25.031253536542266L220.88888888888889,23.13243979215622L224,26.494100034236908L227.11111111111111,24.182951986789703L230.2222222222222,21.73495743672055L233.33333333333334,24.393057962258666L236.44444444444446,23.552642901738494L239.55555555555554,23.65769588947296L242.66666666666669,22.081918756167113L245.77777777777777,22.712227841218322L248.88888888888889,23.762748877207457L252,22.712227841218322L255.11111111111111,23.237483938535064L258.22222222222223,20.92634473244351L261.3333333333333,23.762748877207457L264.44444444444446,22.50212186574936" style="fill: none;" fill="none"></path></g></g></g></g></g></g><g transform="translate(50, 178)" clip-path="url(#clip_1)"><clipPath id="clip_1"><rect width="280" height="22"></rect></clipPath><g><g><line x1="0" y1="0" x2="0" y2="5" style="visibility: inherit;" fill="rgb(0, 0, 0)" stroke="rgb(204, 204, 204)" stroke-width="1px"></line><line x1="31.11111111111111" y1="0" x2="31.11111111111111" y2="5" style="visibility: inherit;" fill="rgb(0, 0, 0)" stroke="rgb(204, 204, 204)" stroke-width="1px"></line><line x1="62.22222222222222" y1="0" x2="62.22222222222222" y2="5" style="visibility: inherit;" fill="rgb(0, 0, 0)" stroke="rgb(204, 204, 204)" stroke-width="1px"></line><line x1="93.33333333333333" y1="0" x2="93.33333333333333" y2="5" style="visibility: inherit;" fill="rgb(0, 0, 0)" stroke="rgb(204, 204, 204)" stroke-width="1px"></line><line x1="124.44444444444444" y1="0" x2="124.44444444444444" y2="5" style="visibility: inherit;" fill="rgb(0, 0, 0)" stroke="rgb(204, 204, 204)" stroke-width="1px"></line><line x1="155.55555555555557" y1="0" x2="155.55555555555557" y2="5" style="visibility: inherit;" fill="rgb(0, 0, 0)" stroke="rgb(204, 204, 204)" stroke-width="1px"></line><line x1="186.66666666666666" y1="0" x2="186.66666666666666" y2="5" style="visibility: inherit;" fill="rgb(0, 0, 0)" stroke="rgb(204, 204, 204)" stroke-width="1px"></line><line x1="217.77777777777777" y1="0" x2="217.77777777777777" y2="5" style="visibility: inherit;" fill="rgb(0, 0, 0)" stroke="rgb(204, 204, 204)" stroke-width="1px"></line><line x1="248.88888888888889" y1="0" x2="248.88888888888889" y2="5" style="visibility: inherit;" fill="rgb(0, 0, 0)" stroke="rgb(204, 204, 204)" stroke-width="1px"></line><line x1="280" y1="0" x2="280" y2="5" style="visibility: inherit;" fill="rgb(0, 0, 0)" stroke="rgb(204, 204, 204)" stroke-width="1px"></line></g><g transform="translate(0, 8)"><text x="0" y="0" dx="0em" dy="0.95em" style="text-anchor: middle; visibility: hidden; font-family: &quot;Helvetica Neue&quot;, sans-serif; font-size: 12px; font-weight: 200;" fill="rgb(50, 49, 63)" stroke="none" stroke-width="1px">-10</text><text x="31.11111111111111" y="0" dx="0em" dy="0.95em" style="text-anchor: middle; visibility: inherit; font-family: &quot;Helvetica Neue&quot;, sans-serif; font-size: 12px; font-weight: 200;" fill="rgb(50, 49, 63)" stroke="none" stroke-width="1px">0</text><text x="62.22222222222222" y="0" dx="0em" dy="0.95em" style="text-anchor: middle; visibility: inherit; font-family: &quot;Helvetica Neue&quot;, sans-serif; font-size: 12px; font-weight: 200;" fill="rgb(50, 49, 63)" stroke="none" stroke-width="1px">10</text><text x="93.33333333333333" y="0" dx="0em" dy="0.95em" style="text-anchor: middle; visibility: inherit; font-family: &quot;Helvetica Neue&quot;, sans-serif; font-size: 12px; font-weight: 200;" fill="rgb(50, 49, 63)" stroke="none" stroke-width="1px">20</text><text x="124.44444444444444" y="0" dx="0em" dy="0.95em" style="text-anchor: middle; visibility: inherit; font-family: &quot;Helvetica Neue&quot;, sans-serif; font-size: 12px; font-weight: 200;" fill="rgb(50, 49, 63)" stroke="none" stroke-width="1px">30</text><text x="155.55555555555557" y="0" dx="0em" dy="0.95em" style="text-anchor: middle; visibility: inherit; font-family: &quot;Helvetica Neue&quot;, sans-serif; font-size: 12px; font-weight: 200;" fill="rgb(50, 49, 63)" stroke="none" stroke-width="1px">40</text><text x="186.66666666666666" y="0" dx="0em" dy="0.95em" style="text-anchor: middle; visibility: inherit; font-family: &quot;Helvetica Neue&quot;, sans-serif; font-size: 12px; font-weight: 200;" fill="rgb(50, 49, 63)" stroke="none" stroke-width="1px">50</text><text x="217.77777777777777" y="0" dx="0em" dy="0.95em" style="text-anchor: middle; visibility: inherit; font-family: &quot;Helvetica Neue&quot;, sans-serif; font-size: 12px; font-weight: 200;" fill="rgb(50, 49, 63)" stroke="none" stroke-width="1px">60</text><text x="248.88888888888889" y="0" dx="0em" dy="0.95em" style="text-anchor: middle; visibility: inherit; font-family: &quot;Helvetica Neue&quot;, sans-serif; font-size: 12px; font-weight: 200;" fill="rgb(50, 49, 63)" stroke="none" stroke-width="1px">70</text><text x="280" y="0" dx="0em" dy="0.95em" style="text-anchor: middle; visibility: hidden; font-family: &quot;Helvetica Neue&quot;, sans-serif; font-size: 12px; font-weight: 200;" fill="rgb(50, 49, 63)" stroke="none" stroke-width="1px">80</text></g><line x1="0" y1="0" x2="280" y2="0" fill="rgb(0, 0, 0)" stroke="rgb(204, 204, 204)" stroke-width="1px"></line></g></g></g></g></svg>