<svg viewBox="0 0 330 200" xmlns="http://www.w3.org/2000/svg"><g><g><g><g><g><line x1="50" y1="178" x2="45" y2="178" style="visibility: inherit;" fill="rgb(0, 0, 0)" stroke="rgb(204, 204, 204)" stroke-width="1px"></line><line x1="50" y1="164.30769230769232" x2="45" y2="164.30769230769232" style="visibility: inherit;" fill="rgb(0, 0, 0)" stroke="rgb(204, 204, 204)" stroke-width="1px"></line><line x1="50" y1="150.6153846153846" x2="45" y2="150.6153846153846" style="visibility: inherit;" fill="rgb(0, 0, 0)" stroke="rgb(204, 204, 204)" stroke-width="1px"></line><line x1="50" y1="136.9230769230769" x2="45" y2="136.9230769230769" style="visibility: inherit;" fill="rgb(0, 0, 0)" stroke="rgb(204, 204, 204)" stroke-width="1px"></line><line x1="50" y1="123.23076923076923" x2="45" y2="123.23076923076923" style="visibility: inherit;" fill="rgb(0, 0, 0)" stroke="rgb(204, 204, 204)" stroke-width="1px"></line><line x1="50" y1="109.53846153846153" x2="45" y2="109.53846153846153" style="visibility: inherit;" fill="rgb(0, 0, 0)" stroke="rgb(204, 204, 204)" stroke-width="1px"></line><line x1="50" y1="95.84615384615384" x2="45" y2="95.84615384615384" style="visibility: inherit;" fill="rgb(0, 0, 0)" stroke="rgb(204, 204, 204)" stroke-width="1px"></line><line x1="50" y1="82.15384615384616" x2="45" y2="82.15384615384616" style="visibility: inherit;" fill="rgb(0, 0, 0)" stroke="rgb(204, 204, 204)" stroke-width="1px"></line><line x1="50" y1="68.46153846153845" x2="45" y2="68.46153846153845" style="visibility: inherit;" fill="rgb(0, 0, 0)" stroke="rgb(204, 204, 204)" stroke-width="1px"></line><line x1="50" y1="54.769230769230774" x2="45" y2="54.769230769230774" style="visibility: inherit;" fill="rgb(0, 0, 0)" stroke="rgb(204, 204, 204)" stroke-width="1px"></line><line x1="50" y1="41.076923076923066" x2="45" y2="41.076923076923066" style="visibility: inherit;" fill="rgb(0, 0, 0)" stroke="rgb(204, 204, 204)" stroke-width="1px"></line><line x1="50" y1="27.384615384615387" x2="45" y2="27.384615384615387" style="visibility: inherit;" fill="rgb(0, 0, 0)" stroke="rgb(204, 204, 204)" stroke-width="1px"></line><line x1="50" y1="13.69230769230768" x2="45" y2="13.69230769230768" style="visibility: inherit;" fill="rgb(0, 0, 0)" stroke="rgb(204, 204, 204)" stroke-width="1px"></line><line x1="50" y1="0" x2="45" y2="0" style="visibility: inherit;" fill="rgb(0, 0, 0)" stroke="rgb(204, 204, 204)" stroke-width="1px"></line></g><g transform="translate(40, 0)"><text x="0" y="178" dx="0em" dy="0.3em" style="text-anchor: end; visibility: hidden; font-family: &quot;Helvetica Neue&quot;, sans-serif; font-size: 12px; font-weight: 200;" fill="rgb(50, 49, 63)" stroke="none" stroke-width="1px">-0.5</text><text x="0" y="164.30769230769232" dx="0em" dy="0.3em" style="text-anchor: end; visibility: inherit; font-family: &quot;Helvetica Neue&quot;, sans-serif; font-size: 12px; font-weight: 200;" fill="rgb(50, 49, 63)" stroke="none" stroke-width="1px">0</text><text x="0" y="150.6153846153846" dx="0em" dy="0.3em" style="text-anchor: end; visibility: hidden; font-family: &quot;Helvetica Neue&quot;, sans-serif; font-size: 12px; font-weight: 200;" fill="rgb(50, 49, 63)" stroke="none" stroke-width="1px">0.5</text><text x="0" y="136.9230769230769" dx="0em" dy="0.3em" style="text-anchor: end; visibility: inherit; font-family: &quot;Helvetica Neue&quot;, sans-serif; font-size: 12px; font-weight: 200;" fill="rgb(50, 49, 63)" stroke="none" stroke-width="1px">1</text><text x="0" y="123.23076923076923" dx="0em" dy="0.3em" style="text-anchor: end; visibility: hidden; font-family: &quot;Helvetica Neue&quot;, sans-serif; font-size: 12px; font-weight: 200;" fill="rgb(50, 49, 63)" stroke="none" stroke-width="1px">1.5</text><text x="0" y="109.53846153846153" dx="0em" dy="0.3em" style="text-anchor: end; visibility: inherit; font-family: &quot;Helvetica Neue&quot;, sans-serif; font-size: 12px; font-weight: 200;" fill="rgb(50, 49, 63)" stroke="none" stroke-width="1px">2</text><text x="0" y="95.84615384615384" dx="0em" dy="0.3em" style="text-anchor: end; visibility: hidden; font-family: &quot;Helvetica Neue&quot;, sans-serif; font-size: 12px; font-weight: 200;" fill="rgb(50, 49, 63)" stroke="none" stroke-width="1px">2.5</text><text x="0" y="82.15384615384616" dx="0em" dy="0.3em" style="text-anchor: end; visibility: inherit; font-family: &quot;Helvetica Neue&quot;, sans-serif; font-size: 12px; font-weight: 200;" fill="rgb(50, 49, 63)" stroke="none" stroke-width="1px">3</text><text x="0" y="68.46153846153845" dx="0em" dy="0.3em" style="text-anchor: end; visibility: hidden; font-family: &quot;Helvetica Neue&quot;, sans-serif; font-size: 12px; font-weight: 200;" fill="rgb(50, 49, 63)" stroke="none" stroke-width="1px">3.5</text><text x="0" y="54.769230769230774" dx="0em" dy="0.3em" style="text-anchor: end; visibility: inherit; font-family: &quot;Helvetica Neue&quot;, sans-serif; font-size: 12px; font-weight: 200;" fill="rgb(50, 49, 63)" stroke="none" stroke-width="1px">4</text><text x="0" y="41.076923076923066" dx="0em" dy="0.3em" style="text-anchor: end; visibility: hidden; font-family: &quot;Helvetica Neue&quot;, sans-serif; font-size: 12px; font-weight: 200;" fill="rgb(50, 49, 63)" stroke="none" stroke-width="1px">4.5</text><text x="0" y="27.384615384615387" dx="0em" dy="0.3em" style="text-anchor: end; visibility: inherit; font-family: &quot;Helvetica Neue&quot;, sans-serif; font-size: 12px; font-weight: 200;" fill="rgb(50, 49, 63)" stroke="none" stroke-width="1px">5</text><text x="0" y="13.69230769230768" dx="0em" dy="0.3em" style="text-anchor: end; visibility: hidden; font-family: &quot;Helvetica Neue&quot;, sans-serif; font-size: 12px; font-weight: 200;" fill="rgb(50, 49, 63)" stroke="none" stroke-width="1px">5.5</text><text x="0" y="0" dx="0em" dy="0.3em" style="text-anchor: end; visibility: hidden; font-family: &quot;Helvetica Neue&quot;, sans-serif; font-size: 12px; font-weight: 200;" fill="rgb(50, 49, 63)" stroke="none" stroke-width="1px">6</text></g><line x1="50" y1="0" x2="50" y2="178" fill="rgb(0, 0, 0)" stroke="rgb(204, 204, 204)" stroke-width="1px"></line></g></g><g transform="translate(50, 0)" clip-path="url(#clip_0)"><clipPath id="clip_0"><rect width="280" height="178"></rect></clipPath><g><g><g><line x1="0" y1="0" x2="0" y2="178" fill="rgb(0, 0, 0)" stroke="rgb(60, 60, 60)" stroke-width="1px" opacity="0.25"></line><line x1="31.11111111111111" y1="0" x2="31.11111111111111" y2="178" fill="rgb(0, 0, 0)" stroke="rgb(60, 60, 60)" stroke-width="1px" opacity="0.25"></line><line x1="62.22222222222222" y1="0" x2="62.22222222222222" y2="178" fill="rgb(0, 0, 0)" stroke="rgb(60, 60, 60)" stroke-width="1px" opacity="0.25"></line><line x1="93.33333333333333" y1="0" x2="93.33333333333333" y2="178" fill="rgb(0, 0, 0)" stroke="rgb(60, 60, 60)" stroke-width="1px" opacity="0.25"></line><line x1="124.44444444444444" y1="0" x2="124.44444444444444" y2="178" fill="rgb(0, 0, 0)" stroke="rgb(60, 60, 60)" stroke-width="1px" opacity="0.25"></line><line x1="155.55555555555557" y1="0" x2="155.55555555555557" y2="178" fill="rgb(0, 0, 0)" stroke="rgb(60, 60, 60)" stroke-width="1px" opacity="0.25"></line><line x1="186.66666666666666" y1="0" x2="186.66666666666666" y2="178" fill="rgb(0, 0, 0)" stroke="rgb(60, 60, 60)" stroke-width="1px" opacity="0.25"></line><line x1="217.77777777777777" y1="0" x2="217.77777777777777" y2="178" fill="rgb(0, 0, 0)" stroke="rgb(60, 60, 60)" stroke-width="1px" opacity="0.25"></line><line x1="248.88888888888889" y1="0" x2="248.88888888888889" y2="178" fill="rgb(0, 0, 0)" stroke="rgb(60, 60, 60)" stroke-width="1px" opacity="0.25"></line><line x1="280" y1="0" x2="280" y2="178" fill="rgb(0, 0, 0)" stroke="rgb(60, 60, 60)" stroke-width="1px" opacity="0.25"></line></g><g><line x1="0" y1="178" x2="280" y2="178" fill="rgb(0, 0, 0)" stroke="rgb(60, 60, 60)" stroke-width="1px" opacity="0.25"></line><line x1="0" y1="164.30769230769232" x2="280" y2="164.30769230769232" fill="rgb(0, 0, 0)" stroke="rgb(60, 60, 60)" stroke-width="1px" opacity="0.25"></line><line x1="0" y1="150.6153846153846" x2="280" y2="150.6153846153846" fill="rgb(0, 0, 0)" stroke="rgb(60, 60, 60)" stroke-width="1px" opacity="0.25"></line><line x1="0" y1="136.9230769230769" x2="280" y2="136.9230769230769" fill="rgb(0, 0, 0)" stroke="rgb(60, 60, 60)" stroke-width="1px" opacity="0.25"></line><line x1="0" y1="123.23076923076923" x2="280" y2="123.23076923076923" fill="rgb(0, 0, 0)" stroke="rgb(60, 60, 60)" stroke-width="1px" opacity="0.25"></line><line x1="0" y1="109.53846153846153" x2="280" y2="109.53846153846153" fill="rgb(0, 0, 0)" stroke="rgb(60, 60, 60)" stroke-width="1px" opacity="0.25"></line><line x1="0" y1="95.84615384615384" x2="280" y2="95.84615384615384" fill="rgb(0, 0, 0)" stroke="rgb(60, 60, 60)" stroke-width="1px" opacity="0.25"></line><line x1="0" y1="82.15384615384616" x2="280" y2="82.15384615384616" fill="rgb(0, 0, 0)" stroke="rgb(60, 60, 60)" stroke-width="1px" opacity="0.25"></line><line x1="0" y1="68.46153846153845" x2="280" y2="68.46153846153845" fill="rgb(0, 0, 0)" stroke="rgb(60, 60, 60)" stroke-width="1px" opacity="0.25"></line><line x1="0" y1="54.769230769230774" x2="280" y2="54.769230769230774" fill="rgb(0, 0, 0)" stroke="rgb(60, 60, 60)" stroke-width="1px" opacity="0.25"></line><line x1="0" y1="41.076923076923066" x2="280" y2="41.076923076923066" fill="rgb(0, 0, 0)" stroke="rgb(60, 60, 60)" stroke-width="1px" opacity="0.25"></line><line x1="0" y1="27.384615384615387" x2="280" y2="27.384615384615387" fill="rgb(0, 0, 0)" stroke="rgb(60, 60, 60)" stroke-width="1px" opacity="0.25"></line><line x1="0" y1="13.69230769230768" x2="280" y2="13.69230769230768" fill="rgb(0, 0, 0)" stroke="rgb(60, 60, 60)" stroke-width="1px" opacity="0.25"></line><line x1="0" y1="0" x2="280" y2="0" fill="rgb(0, 0, 0)" stroke="rgb(60, 60, 60)" stroke-width="1px" opacity="0.25"></line></g></g></g><g><g><line x1="0" y1="164.30769230769232" x2="280" y2="164.30769230769232" fill="rgb(0, 0, 0)" stroke="rgb(153, 153, 153)" stroke-width="1.5px"></line></g></g><g><g><line x1="31.11111111111111" y1="0" x2="31.11111111111111" y2="178" fill="rgb(0, 0, 0)" stroke="rgb(153, 153, 153)" stroke-width="1.5px"></line></g></g><g><g><g><g><g><path stroke="rgb(238, 51, 119)" stroke-width="2px" d="M31.11111111111111,134.64346639926617L34.22222222222222,135.3962275798504L37.333333333333336,137.81997349760036L40.44444444444444,140.53787669694532L43.55555555555556,142.64034670926398L46.666666666666664,140.2675558193714L49.77777777777778,137.54845781562946L52.888888888888886,139.66347980022414L56,139.8312593020628L59.111111111111114,140.10009054574678L62.22222222222222,129.98564936015185L65.33333333333333,136.06112298681654L68.44444444444444,141.96872228486657L71.55555555555554,142.1387555379418L74.66666666666667,141.939873216306L77.77777777777779,145.5770949146969L80.88888888888889,146.83341944988845L84,137.83987083064406L87.11111111111111,143.8392537751652L90.22222222222223,147.20355187838354L93.33333333333333,147.58701781944976L96.44444444444444,146.00656768011362L99.55555555555556,144.6238612175358L102.66666666666666,147.3856262101383L105.77777777777777,138.79476382161545L108.88888888888889,144.4712988372071L112,148.10582195971898L115.1111111111111,147.3564530733143L118.22222222222223,148.67163114771444L121.33333333333334,147.25533823528323L124.44444444444444,147.78153940388373L127.55555555555556,149.84229374218134L130.66666666666666,150.63126350087214L133.77777777777777,152.06901048614134L136.88888888888889,148.82465410290936L140,151.26972070463287L143.1111111111111,151.14925981440695L146.22222222222223,153.24273162455532L149.33333333333334,152.15699389556255L152.44444444444443,148.7502396715592L155.55555555555557,148.98534128853433L158.66666666666666,150.1732717608033L161.77777777777777,151.99972485131968L164.88888888888889,151.6694829931743L168,153.33905167836127L171.11111111111111,153.41914407884488L174.22222222222223,153.72010364083366L177.33333333333331,154.61778078692092L180.44444444444446,152.54142746776762L183.55555555555554,154.2364277339373L186.66666666666666,154.75494159851473L189.7777777777778,155.19031378339105L192.88888888888889,155.47914530187202L196,155.09052377551367L199.11111111111111,154.11780568311906L202.22222222222223,155.29310143202764L205.33333333333331,154.94693831972558L208.44444444444446,154.5184322471066L211.55555555555554,152.41521665669558L214.66666666666669,152.26435451316007L217.77777777777777,152.6981489859605L220.88888888888889,146.97951316206994L224,147.83406330613056L227.11111111111111,149.65491075290208L230.2222222222222,151.5437546283688L233.33333333333334,151.68273162951337L236.44444444444446,152.86362593789903L239.55555555555554,153.26871218060535L242.66666666666669,150.96008535672888L245.77777777777777,152.68649309316305L248.88888888888889,153.00103817843814L252,154.53128136856026L255.11111111111111,155.16735746017542L258.22222222222223,155.31215478648076L261.3333333333333,154.86302537079098L264.44444444444446,154.1281921893912" style="fill: none;" fill="none"></path></g><g><path stroke="rgb(51, 187, 238)" stroke-width="2px" d="M31.11111111111111,32.081278434166535L34.22222222222222,96.49123914883688L37.333333333333336,118.3529911580228L40.44444444444444,130.56136605838037L43.55555555555556,138.06863021944767L46.666666666666664,142.85516939364484L49.77777777777778,145.97624427828973L52.888888888888886,147.72836157815175L56,149.40098647904392L59.111111111111114,150.4947997587978L62.22222222222222,151.04072184293145L65.33333333333333,151.39462345809454L68.44444444444444,151.605597986138L71.55555555555554,151.6048332610182L74.66666666666667,152.1750738076752L77.77777777777779,152.36069548536526L80.88888888888889,152.88779835862283L84,153.34425428660933L87.11111111111111,153.56790570345072L90.22222222222223,153.7102787623897L93.33333333333333,154.00325227623958L96.44444444444444,154.2751257418301L99.55555555555556,154.49248110680833L102.66666666666666,154.74640553767068L105.77777777777777,155.24034565562044L108.88888888888889,155.48280889366012L112,152.1616945522714L115.1111111111111,153.61646164287077L118.22222222222223,154.59894819090914L121.33333333333334,155.42614389485644L124.44444444444444,155.7992631771423L127.55555555555556,155.88591109707446L130.66666666666666,156.2387255428725L133.77777777777777,156.47951493760758L136.88888888888889,156.87484454839637L140,157.27541962838683L143.1111111111111,157.44278039783407L146.22222222222223,157.50410462789756L149.33333333333334,157.4585751540973L152.44444444444443,157.1815714924928L155.55555555555557,157.2948080942354L158.66666666666666,157.2077096204576L161.77777777777777,157.3128848292032L164.88888888888889,157.82770281226928L168,157.6459585939225L171.11111111111111,157.73583815780106L174.22222222222223,157.99371360895714L177.33333333333331,158.18310004062795L180.44444444444446,158.08168259979783L183.55555555555554,157.70206883704333L186.66666666666666,157.92494937320217L189.7777777777778,158.32624970721199L192.88888888888889,158.38834861288214L196,158.43165413774287L199.11111111111111,158.5152193248658L202.22222222222223,158.71215633440508L205.33333333333331,158.74990964786383L208.44444444444446,159.1358279114184L211.55555555555554,159.24107713895498L214.66666666666669,159.5641289069868L217.77777777777777,159.59558093589095L220.88888888888889,159.67035721473516L224,159.39680980147034L227.11111111111111,159.46955253367904L230.2222222222222,159.84721550295384L233.33333333333334,159.80224601321277L236.44444444444446,159.642896657085L239.55555555555554,159.8326243044616L242.66666666666669,160.18374992912484L245.77777777777777,160.19758832618416L248.88888888888889,160.13546743674584L252,160.17500762154762L255.11111111111111,160.18619915161287L258.22222222222223,160.6051245937342L261.3333333333333,160.3636100554683L264.44444444444446,160.45559781255557" style="fill: none;" fill="none"></path></g></g></g></g><g opacity="0.2"><g><g><g><path stroke="rgb(238, 51, 119)" stroke-width="2px" d="M31.11111111111111,134.64346639926617L34.22222222222222,135.84788428820096L37.333333333333336,140.14676957864026L40.44444444444444,143.734130859375L43.55555555555556,145.38533155734723L46.666666666666664,136.98513181392963L49.77777777777778,133.66010416471042L52.888888888888886,142.74720215797424L56,140.07870147778436L59.111111111111114,140.49927361194904L62.22222222222222,114.90572481888991L65.33333333333333,145.14127096763025L68.44444444444444,150.81083189524136L71.55555555555554,142.39347230471097L74.66666666666667,141.64178351255563L77.77777777777779,151.03036221174094L80.88888888888889,148.71737461823682L84,124.35183136279767L87.11111111111111,152.83741424633905L90.22222222222223,152.24969152303842L93.33333333333333,148.16219570086554L96.44444444444444,143.63594447649442L99.55555555555556,142.54982882279614L102.66666666666666,151.5282409833028L105.77777777777777,125.90853129900418L108.88888888888889,152.98607715276572L112,153.55759734373828L115.1111111111111,146.23240089416504L118.22222222222223,150.6443970478498L121.33333333333334,145.13089964939996L124.44444444444444,148.5708409822904L127.55555555555556,152.93342483960666L130.66666666666666,151.81471804472116L133.77777777777777,154.22563086106226L136.88888888888889,143.95811966749338L140,154.9373205441695L143.1111111111111,150.9685684809318L146.22222222222223,156.38293932034418L149.33333333333334,150.52838730812073L152.44444444444443,143.6401083469391L155.55555555555557,149.33799371352563L158.66666666666666,151.95516746777753L161.77777777777777,154.73940448577588L164.88888888888889,151.1741202060993L168,155.84340470570785L171.11111111111111,153.5392826795578L174.22222222222223,154.1715429837887L177.33333333333331,155.9642965060014L180.44444444444446,149.42689748910757L183.55555555555554,156.7789281331576L186.66666666666666,155.53271239537457L189.7777777777778,155.8433720607024L192.88888888888889,155.9123925795922L196,154.50759148597717L199.11111111111111,152.65872854452869L202.22222222222223,157.0560450553894L205.33333333333331,154.4276936512727L208.44444444444446,153.8756731381783L211.55555555555554,149.26039327107944L214.66666666666669,152.03806129785684L217.77777777777777,153.34884069516107L220.88888888888889,138.40155942623431L224,149.1158885222215L227.11111111111111,152.38618192305933L230.2222222222222,154.37702044156882L233.33333333333334,151.89119713123029L236.44444444444446,154.63496740047748L239.55555555555554,153.87634154466483L242.66666666666669,147.49714512091418L245.77777777777777,155.27610469781436L248.88888888888889,153.4728558063507L252,156.82664615374344L255.11111111111111,156.12147159759814L258.22222222222223,155.52935077593878L261.3333333333333,154.18933124725635L264.44444444444446,153.0259424172915" style="fill: none;" fill="none"></path></g><g><path stroke="rgb(51, 187, 238)" stroke-width="2px" d="M31.11111111111111,32.081278434166535L34.22222222222222,135.13721557763907L37.333333333333336,139.3402730868413L40.44444444444444,144.91841494120084L43.55555555555556,147.87011430813715L46.666666666666664,149.47667622566223L49.77777777777778,150.43943130053006L52.888888888888886,150.28296542167664L56,151.86778331719913L59.111111111111114,152.11898500185748L62.22222222222222,151.85465349600867L65.33333333333333,151.92354996387775L68.44444444444444,151.92137090976422L71.55555555555554,151.60368767151465L74.66666666666667,153.0297643313041L77.77777777777779,152.63899708711185L80.88888888888889,153.67822961623853L84,154.0288222844784L87.11111111111111,153.90334875767047L90.22222222222223,153.9238253373366L93.33333333333333,154.44269647965064L96.44444444444444,154.68292699410364L99.55555555555556,154.81850986297314L102.66666666666666,155.12728917598724L105.77777777777777,155.98125232183017L108.88888888888889,155.8465027167247L112,147.18003153800964L115.1111111111111,155.79861004535968L118.22222222222223,156.0726771079577L121.33333333333334,156.66693699359894L124.44444444444444,156.35894197684067L127.55555555555556,156.01588295973264L130.66666666666666,156.76794716945062L133.77777777777777,156.84069901246292L136.88888888888889,157.46783894758957L140,157.87628223804327L143.1111111111111,157.6938215494156L146.22222222222223,157.59609097242355L149.33333333333334,157.39028094365045L152.44444444444443,156.76606600101178L155.55555555555557,157.46466299662222L158.66666666666666,157.0770619098957L161.77777777777777,157.47064764224567L164.88888888888889,158.59992978664545L168,157.37334226644955L171.11111111111111,157.8706575036049L174.22222222222223,158.38052678566712L177.33333333333331,158.46717968812357L180.44444444444446,157.9295564385561L183.55555555555554,157.13264819291922L186.66666666666666,158.2592701774377L189.7777777777778,158.92820020822379L192.88888888888889,158.48149697138712L196,158.49661242503387L199.11111111111111,158.64056710555002L202.22222222222223,159.0075618487138L205.33333333333331,158.80653961805197L208.44444444444446,159.7147053067501L211.55555555555554,159.39895098025983L214.66666666666669,160.04870655903449L217.77777777777777,159.64275897924716L220.88888888888889,159.78252163300147L224,158.98648868157312L227.11111111111111,159.57866663199204L230.2222222222222,160.41370995686606L233.33333333333334,159.73479177860114L236.44444444444446,159.4038726228934L239.55555555555554,160.1172157755265L242.66666666666669,160.7104383661197L245.77777777777777,160.21834592177316L248.88888888888889,160.04228610258835L252,160.2343178987503L255.11111111111111,160.20298644671072L258.22222222222223,161.23351275691618L261.3333333333333,160.00133824806946L264.44444444444446,160.59357944818643" style="fill: none;" fill="none"></path></g></g></g></g></g></g><g transform="translate(50, 178)" clip-path="url(#clip_1)"><clipPath id="clip_1"><rect width="280" height="22"></rect></clipPath><g><g><line x1="0" y1="0" x2="0" y2="5" style="visibility: inherit;" fill="rgb(0, 0, 0)" stroke="rgb(204, 204, 204)" stroke-width="1px"></line><line x1="31.11111111111111" y1="0" x2="31.11111111111111" y2="5" style="visibility: inherit;" fill="rgb(0, 0, 0)" stroke="rgb(204, 204, 204)" stroke-width="1px"></line><line x1="62.22222222222222" y1="0" x2="62.22222222222222" y2="5" style="visibility: inherit;" fill="rgb(0, 0, 0)" stroke="rgb(204, 204, 204)" stroke-width="1px"></line><line x1="93.33333333333333" y1="0" x2="93.33333333333333" y2="5" style="visibility: inherit;" fill="rgb(0, 0, 0)" stroke="rgb(204, 204, 204)" stroke-width="1px"></line><line x1="124.44444444444444" y1="0" x2="124.44444444444444" y2="5" style="visibility: inherit;" fill="rgb(0, 0, 0)" stroke="rgb(204, 204, 204)" stroke-width="1px"></line><line x1="155.55555555555557" y1="0" x2="155.55555555555557" y2="5" style="visibility: inherit;" fill="rgb(0, 0, 0)" stroke="rgb(204, 204, 204)" stroke-width="1px"></line><line x1="186.66666666666666" y1="0" x2="186.66666666666666" y2="5" style="visibility: inherit;" fill="rgb(0, 0, 0)" stroke="rgb(204, 204, 204)" stroke-width="1px"></line><line x1="217.77777777777777" y1="0" x2="217.77777777777777" y2="5" style="visibility: inherit;" fill="rgb(0, 0, 0)" stroke="rgb(204, 204, 204)" stroke-width="1px"></line><line x1="248.88888888888889" y1="0" x2="248.88888888888889" y2="5" style="visibility: inherit;" fill="rgb(0, 0, 0)" stroke="rgb(204, 204, 204)" stroke-width="1px"></line><line x1="280" y1="0" x2="280" y2="5" style="visibility: inherit;" fill="rgb(0, 0, 0)" stroke="rgb(204, 204, 204)" stroke-width="1px"></line></g><g transform="translate(0, 8)"><text x="0" y="0" dx="0em" dy="0.95em" style="text-anchor: middle; visibility: hidden; font-family: &quot;Helvetica Neue&quot;, sans-serif; font-size: 12px; font-weight: 200;" fill="rgb(50, 49, 63)" stroke="none" stroke-width="1px">-10</text><text x="31.11111111111111" y="0" dx="0em" dy="0.95em" style="text-anchor: middle; visibility: inherit; font-family: &quot;Helvetica Neue&quot;, sans-serif; font-size: 12px; font-weight: 200;" fill="rgb(50, 49, 63)" stroke="none" stroke-width="1px">0</text><text x="62.22222222222222" y="0" dx="0em" dy="0.95em" style="text-anchor: middle; visibility: inherit; font-family: &quot;Helvetica Neue&quot;, sans-serif; font-size: 12px; font-weight: 200;" fill="rgb(50, 49, 63)" stroke="none" stroke-width="1px">10</text><text x="93.33333333333333" y="0" dx="0em" dy="0.95em" style="text-anchor: middle; visibility: inherit; font-family: &quot;Helvetica Neue&quot;, sans-serif; font-size: 12px; font-weight: 200;" fill="rgb(50, 49, 63)" stroke="none" stroke-width="1px">20</text><text x="124.44444444444444" y="0" dx="0em" dy="0.95em" style="text-anchor: middle; visibility: inherit; font-family: &quot;Helvetica Neue&quot;, sans-serif; font-size: 12px; font-weight: 200;" fill="rgb(50, 49, 63)" stroke="none" stroke-width="1px">30</text><text x="155.55555555555557" y="0" dx="0em" dy="0.95em" style="text-anchor: middle; visibility: inherit; font-family: &quot;Helvetica Neue&quot;, sans-serif; font-size: 12px; font-weight: 200;" fill="rgb(50, 49, 63)" stroke="none" stroke-width="1px">40</text><text x="186.66666666666666" y="0" dx="0em" dy="0.95em" style="text-anchor: middle; visibility: inherit; font-family: &quot;Helvetica Neue&quot;, sans-serif; font-size: 12px; font-weight: 200;" fill="rgb(50, 49, 63)" stroke="none" stroke-width="1px">50</text><text x="217.77777777777777" y="0" dx="0em" dy="0.95em" style="text-anchor: middle; visibility: inherit; font-family: &quot;Helvetica Neue&quot;, sans-serif; font-size: 12px; font-weight: 200;" fill="rgb(50, 49, 63)" stroke="none" stroke-width="1px">60</text><text x="248.88888888888889" y="0" dx="0em" dy="0.95em" style="text-anchor: middle; visibility: inherit; font-family: &quot;Helvetica Neue&quot;, sans-serif; font-size: 12px; font-weight: 200;" fill="rgb(50, 49, 63)" stroke="none" stroke-width="1px">70</text><text x="280" y="0" dx="0em" dy="0.95em" style="text-anchor: middle; visibility: hidden; font-family: &quot;Helvetica Neue&quot;, sans-serif; font-size: 12px; font-weight: 200;" fill="rgb(50, 49, 63)" stroke="none" stroke-width="1px">80</text></g><line x1="0" y1="0" x2="280" y2="0" fill="rgb(0, 0, 0)" stroke="rgb(204, 204, 204)" stroke-width="1px"></line></g></g></g></g></svg>